{
  "accessors": [
    {
      "bufferView": 2,
      "componentType": 5126,
      "count": 4060,
      "max": [
        0.15297660231590271,
        0.5450441837310791,
        0.22272765636444092
      ],
      "min": [
        -0.15290245413780212,
        -0.00010835476132342592,
        -0.2233186662197113
      ],
      "type": "VEC3"
    },
    {
      "bufferView": 2,
      "byteOffset": 48720,
      "componentType": 5126,
      "count": 4060,
      "max": [
        0.99995613098144531,
        0.99856036901473999,
        0.99850809574127197
      ],
      "min": [
        -0.99987375736236572,
        -0.99999672174453735,
        -0.99636459350585938
      ],
      "type": "VEC3"
    },
    {
      "bufferView": 3,
      "componentType": 5126,
      "count": 4060,
      "max": [
        0.99767434597015381,
        0.99624866247177124,
        0.99822747707366943,
        1
      ],
      "min": [
        -0.99956303834915161,
        -0.99983769655227661,
        -0.99978911876678467,
        -1
      ],
      "type": "VEC4"
    },
    {
      "bufferView": 3,
      "byteOffset": 64960,
      "componentType": 5126,
      "count": 4060,
      "max": [
        1,
        1,
        1,
        1
      ],
      "min": [
        1,
        1,
        1,
        1
      ],
      "type": "VEC4"
    },
    {
      "bufferView": 1,
      "componentType": 5126,
      "count": 4060,
      "max": [
        0.99692857265472412,
        0.9883190393447876
      ],
      "min": [
        0.001953125,
        0.001953125
      ],
      "type": "VEC2"
    },
    {
      "bufferView": 1,
      "byteOffset": 32480,
      "componentType": 5126,
      "count": 4060,
      "max": [
        0.99692857265472412,
        0.9883190393447876
      ],
      "min": [
        0.001953125,
        0.001953125
      ],
      "type": "VEC2"
    },
    {
      "bufferView": 0,
      "componentType": 5125,
      "count": 18078,
      "max": [
        4059
      ],
      "min": [
        0
      ],
      "type": "SCALAR"
    }
  ],
  "asset": {
    "extras": {
      "author": "David Wigforss (https://sketchfab.com/dwigfor)",
      "license": "CC-BY-NC-4.0 (http://creativecommons.org/licenses/by-nc/4.0/)",
      "source": "https://sketchfab.com/3d-models/german-shepherd-sitting-74fb76422a7244a2bd73757ab533ab94",
      "title": "German Shepherd (Sitting)"
    },
    "generator": "Sketchfab-8.50.0",
    "version": "2.0"
  },
  "bufferViews": [
    {
      "buffer": 0,
      "byteLength": 72312,
      "byteOffset": 0,
      "name": "floatBufferViews",
      "target": 34963
    },
    {
      "buffer": 0,
      "byteLength": 64960,
      "byteOffset": 72312,
      "byteStride": 8,
      "name": "floatBufferViews",
      "target": 34962
    },
    {
      "buffer": 0,
      "byteLength": 97440,
      "byteOffset": 137272,
      "byteStride": 12,
      "name": "floatBufferViews",
      "target": 34962
    },
    {
      "buffer": 0,
      "byteLength": 129920,
      "byteOffset": 234712,
      "byteStride": 16,
      "name": "floatBufferViews",
      "target": 34962
    }
  ],
  "buffers": [
    {
      "byteLength": 364632,
      "uri": "scene.bin"
    }
  ],
  "images": [
    {
      "uri": "textures/MAT_Dog_GermanShepherdSitting_baseColor.jpeg"
    },
    {
      "uri": "textures/MAT_Dog_GermanShepherdSitting_normal.png"
    }
  ],
  "materials": [
    {
      "doubleSided": true,
      "emissiveFactor": [
        0,
        0,
        0
      ],
      "name": "MAT_Dog_GermanShepherdSitting",
      "normalTexture": {
        "index": 1,
        "scale": 1,
        "texCoord": 0
      },
      "pbrMetallicRoughness": {
        "baseColorFactor": [
          1,
          1,
          1,
          1
        ],
        "baseColorTexture": {
          "index": 0,
          "texCoord": 0
        },
        "metallicFactor": 0,
        "roughnessFactor": 0.95770514946237739
      }
    }
  ],
  "meshes": [
    {
      "name": "geo1_MAT_Dog_GermanShepherdSitting_0",
      "primitives": [
        {
          "attributes": {
            "COLOR_0": 3,
            "NORMAL": 1,
            "POSITION": 0,
            "TANGENT": 2,
            "TEXCOORD_0": 4,
            "TEXCOORD_1": 5
          },
          "indices": 6,
          "material": 0,
          "mode": 4
        }
      ]
    }
  ],
  "nodes": [
    {
      "children": [
        1
      ],
      "name": "RootNode (gltf orientation matrix)",
      "rotation": [
        -0.70710678118654746,
        -0,
        -0,
        0.70710678118654757
      ]
    },
    {
      "children": [
        2
      ],
      "name": "RootNode (model correction matrix)"
    },
    {
      "children": [
        3
      ],
      "matrix": [
        1,
        0,
        0,
        0,
        0,
        0,
        1,
        0,
        0,
        -1,
        0,
        0,
        0,
        0,
        0,
        1
      ],
      "name": "mesh.fbx"
    },
    {
      "children": [
        4
      ],
      "name": "RootNode"
    },
    {
      "children": [
        5
      ],
      "name": "geo1"
    },
    {
      "mesh": 0,
      "name": "geo1_MAT_Dog_GermanShepherdSitting_0"
    }
  ],
  "samplers": [
    {
      "magFilter": 9729,
      "minFilter": 9987,
      "wrapS": 10497,
      "wrapT": 10497
    }
  ],
  "scene": 0,
  "scenes": [
    {
      "name": "OSG_Scene",
      "nodes": [
        0
      ]
    }
  ],
  "textures": [
    {
      "sampler": 0,
      "source": 0
    },
    {
      "sampler": 0,
      "source": 1
    }
  ]
}

